<svg xmlns="http://www.w3.org/2000/svg" viewBox="0 0 24 24" preserveAspectRatio="xMidYMid meet" style="width: 200px; height: 200px; transform-origin: 50% 50%; transform: scaleX(1) scaleY(1) rotate(0deg);"><defs><style>.cls-1{fill:#fff;opacity:0;}.cls-2{fill:#231f20;}</style></defs><title>info</title><g id="Layer_2" data-name="Layer 2" style="fill:#FFFFFF"><g id="info" style="fill:#FFFFFF"><g id="info-2" data-name="info" style="fill:#FFFFFF"><rect class="cls-1" width="24" height="24" transform="translate(24 24) rotate(180)" style="fill:#FFFFFF"/><path class="cls-2" d="M12,2A10,10,0,1,0,22,12,10,10,0,0,0,12,2Zm0,18a8,8,0,1,1,8-8A8,8,0,0,1,12,20Z" style="fill:#FFFFFF"/><circle class="cls-2" cx="12" cy="8" r="1" style="fill:#FFFFFF"/><path class="cls-2" d="M12,10a1,1,0,0,0-1,1v5a1,1,0,0,0,2,0V11A1,1,0,0,0,12,10Z" style="fill:#FFFFFF"/></g></g></g></svg>